<svg width="12" height="13" viewBox="0 0 12 13" fill="none" xmlns="http://www.w3.org/2000/svg">
<path d="M10.8333 1.66732H9.16667V0.833984C9.16667 0.560651 8.94 0.333984 8.66667 0.333984C8.39333 0.333984 8.16667 0.560651 8.16667 0.833984V1.66732H3.83333V0.833984C3.83333 0.560651 3.60667 0.333984 3.33333 0.333984C3.06 0.333984 2.83333 0.560651 2.83333 0.833984V1.66732H1.16667C0.526667 1.66732 0 2.19398 0 2.83398V11.834C0 12.4807 0.526667 13.0007 1.16667 13.0007H10.8333C11.4733 13.0007 12 12.4807 12 11.834V2.83398C12 2.19398 11.4733 1.66732 10.8333 1.66732ZM1 2.83398C1 2.74065 1.07333 2.66732 1.16667 2.66732H10.8333C10.9267 2.66732 11 2.74065 11 2.83398V4.33398H1V2.83398ZM11 11.834C11 11.9273 10.9267 12.0007 10.8333 12.0007H1.16667C1.07333 12.0007 1 11.9273 1 11.834V5.33398H11V11.834Z" fill="#024E31"/>
<path d="M3.33935 8.33333C2.96602 8.33333 2.66602 8.03333 2.66602 7.66667C2.66602 7.3 2.96602 7 3.33268 7C3.69935 7 3.99935 7.3 3.99935 7.66667C3.99935 8.03333 3.70602 8.33333 3.33935 8.33333Z" fill="#024E31"/>
<path d="M5.9987 8.33333C5.63203 8.33333 5.33203 8.03333 5.33203 7.66667C5.33203 7.3 5.62536 7 5.9987 7C6.36536 7 6.66536 7.3 6.66536 7.66667C6.66536 8.03333 6.37203 8.33333 5.9987 8.33333Z" fill="#024E31"/>
<path d="M8.66667 8.33333C8.3 8.33333 8 8.03333 8 7.66667C8 7.3 8.29333 7 8.66667 7C9.03333 7 9.33333 7.3 9.33333 7.66667C9.33333 8.03333 9.03333 8.33333 8.66667 8.33333Z" fill="#024E31"/>
<path d="M3.33935 10.6673C2.96602 10.6673 2.66602 10.3673 2.66602 10.0007C2.66602 9.63398 2.96602 9.33398 3.33268 9.33398C3.69935 9.33398 3.99935 9.63398 3.99935 10.0007C3.99935 10.3673 3.70602 10.6673 3.33935 10.6673Z" fill="#024E31"/>
<path d="M6.00065 10.6673C5.63398 10.6673 5.33398 10.3673 5.33398 10.0007C5.33398 9.63398 5.62732 9.33398 6.00065 9.33398C6.36732 9.33398 6.66732 9.63398 6.66732 10.0007C6.66732 10.3673 6.37398 10.6673 6.00065 10.6673Z" fill="#024E31"/>
</svg>
