<svg width="18" height="18" viewBox="0 0 18 18" fill="none" xmlns="http://www.w3.org/2000/svg">
<path d="M10.89 4.35945C10.89 4.55945 10.81 4.74945 10.67 4.88945L7.06 8.49945C6.91 8.64945 6.72 8.71945 6.53 8.71945C6.33 8.71945 6.14 8.64945 6 8.49945C5.7 8.20945 5.7 7.72945 6 7.43945L8.33 5.10945H0.75C0.34 5.10945 0 4.76945 0 4.35945C0 3.94945 0.34 3.60945 0.75 3.60945H8.33L6 1.27945C5.7 0.989453 5.7 0.509453 6 0.219453C6.29 -0.0705469 6.76 -0.0705469 7.06 0.219453L10.67 3.82945C10.81 3.96945 10.89 4.15945 10.89 4.35945Z" fill="#121331"/>
<path d="M18.0008 13.6387C18.0008 14.0487 17.6608 14.3887 17.2508 14.3887H9.67078L12.0008 16.7187C12.3008 17.0087 12.3008 17.4888 12.0008 17.7788C11.8608 17.9288 11.6708 17.9987 11.4708 17.9987C11.2808 17.9987 11.0908 17.9288 10.9408 17.7788L7.33078 14.1688C7.04078 13.8788 7.04078 13.3988 7.33078 13.1088L10.9408 9.49875C11.2408 9.20875 11.7108 9.20875 12.0008 9.49875C12.3008 9.78875 12.3008 10.2688 12.0008 10.5588L9.67078 12.8888H17.2508C17.6608 12.8888 18.0008 13.2287 18.0008 13.6387Z" fill="#121331"/>
</svg>
